<svg id="visual" viewBox="0 0 1920 1080" width="1920" height="1080" xmlns="http://www.w3.org/2000/svg" xmlns:xlink="http://www.w3.org/1999/xlink" version="1.1"><g stroke-width="1" stroke-linejoin="bevel"><path d="M854.3 537L886.3 729L1039.7 711Z" fill="#cfcfcf" stroke="#cfcfcf"></path><path d="M1039.7 711L1090.7 575L854.3 537Z" fill="#c8c8c8" stroke="#c8c8c8"></path><path d="M854.3 537L665 694L886.3 729Z" fill="#c1c1c1" stroke="#c1c1c1"></path><path d="M1090.7 575L1105.7 366L854.3 537Z" fill="#c1c1c1" stroke="#c1c1c1"></path><path d="M664 325L648 562L854.3 537Z" fill="#bdbdbd" stroke="#bdbdbd"></path><path d="M854.3 537L648 562L665 694Z" fill="#c4c4c4" stroke="#c4c4c4"></path><path d="M1105.7 366L856.3 321L854.3 537Z" fill="#cfcfcf" stroke="#cfcfcf"></path><path d="M1090.7 916L1257 688L1039.7 711Z" fill="#c4c4c4" stroke="#c4c4c4"></path><path d="M1039.7 711L1257 688L1090.7 575Z" fill="#bfbfbf" stroke="#bfbfbf"></path><path d="M1090.7 575L1279 531L1105.7 366Z" fill="#c6c6c6" stroke="#c6c6c6"></path><path d="M813.3 919L1090.7 916L886.3 729Z" fill="#bdbdbd" stroke="#bdbdbd"></path><path d="M886.3 729L1090.7 916L1039.7 711Z" fill="#c8c8c8" stroke="#c8c8c8"></path><path d="M665 694L813.3 919L886.3 729Z" fill="#d1d1d1" stroke="#d1d1d1"></path><path d="M1257 688L1279 531L1090.7 575Z" fill="#c6c6c6" stroke="#c6c6c6"></path><path d="M1279 531L1253 382L1105.7 366Z" fill="#c8c8c8" stroke="#c8c8c8"></path><path d="M1105.7 366L1083.7 194L856.3 321Z" fill="#cccccc" stroke="#cccccc"></path><path d="M856.3 321L664 325L854.3 537Z" fill="#c6c6c6" stroke="#c6c6c6"></path><path d="M665 694L634 910L813.3 919Z" fill="#c6c6c6" stroke="#c6c6c6"></path><path d="M428.7 687L634 910L665 694Z" fill="#c1c1c1" stroke="#c1c1c1"></path><path d="M1090.7 916L1275 908L1257 688Z" fill="#d1d1d1" stroke="#d1d1d1"></path><path d="M1257 688L1473.3 681L1279 531Z" fill="#c4c4c4" stroke="#c4c4c4"></path><path d="M1253 382L1083.7 194L1105.7 366Z" fill="#d1d1d1" stroke="#d1d1d1"></path><path d="M856.3 321L676 165L664 325Z" fill="#bfbfbf" stroke="#bfbfbf"></path><path d="M1083.7 194L874.3 167L856.3 321Z" fill="#d1d1d1" stroke="#d1d1d1"></path><path d="M617 1080L839.3 1080L813.3 919Z" fill="#c1c1c1" stroke="#c1c1c1"></path><path d="M813.3 919L839.3 1080L1090.7 916Z" fill="#c4c4c4" stroke="#c4c4c4"></path><path d="M1090.7 916L1242 1080L1275 908Z" fill="#c4c4c4" stroke="#c4c4c4"></path><path d="M839.3 1080L1066.7 1080L1090.7 916Z" fill="#c4c4c4" stroke="#c4c4c4"></path><path d="M1275 908L1473.3 681L1257 688Z" fill="#d3d3d3" stroke="#d3d3d3"></path><path d="M1279 531L1459.3 335L1253 382Z" fill="#bfbfbf" stroke="#bfbfbf"></path><path d="M391.7 561L428.7 687L648 562Z" fill="#d3d3d3" stroke="#d3d3d3"></path><path d="M648 562L428.7 687L665 694Z" fill="#c6c6c6" stroke="#c6c6c6"></path><path d="M874.3 167L676 165L856.3 321Z" fill="#c1c1c1" stroke="#c1c1c1"></path><path d="M387.7 357L391.7 561L648 562Z" fill="#bfbfbf" stroke="#bfbfbf"></path><path d="M1066.7 1080L1242 1080L1090.7 916Z" fill="#cacaca" stroke="#cacaca"></path><path d="M1275 908L1519.3 886L1473.3 681Z" fill="#c6c6c6" stroke="#c6c6c6"></path><path d="M1473.3 681L1491.3 509L1279 531Z" fill="#bdbdbd" stroke="#bdbdbd"></path><path d="M1253 382L1301 152L1083.7 194Z" fill="#c8c8c8" stroke="#c8c8c8"></path><path d="M387.7 357L648 562L664 325Z" fill="#cacaca" stroke="#cacaca"></path><path d="M634 910L617 1080L813.3 919Z" fill="#bdbdbd" stroke="#bdbdbd"></path><path d="M438.7 1080L617 1080L634 910Z" fill="#c4c4c4" stroke="#c4c4c4"></path><path d="M1491.3 509L1459.3 335L1279 531Z" fill="#c8c8c8" stroke="#c8c8c8"></path><path d="M1459.3 335L1301 152L1253 382Z" fill="#c1c1c1" stroke="#c1c1c1"></path><path d="M1089.7 0L836.3 0L874.3 167Z" fill="#cccccc" stroke="#cccccc"></path><path d="M874.3 167L836.3 0L676 165Z" fill="#d1d1d1" stroke="#d1d1d1"></path><path d="M185.3 716L404.7 891L428.7 687Z" fill="#c6c6c6" stroke="#c6c6c6"></path><path d="M428.7 687L404.7 891L634 910Z" fill="#d3d3d3" stroke="#d3d3d3"></path><path d="M416.7 144L387.7 357L664 325Z" fill="#d3d3d3" stroke="#d3d3d3"></path><path d="M1494.3 1080L1519.3 886L1275 908Z" fill="#cacaca" stroke="#cacaca"></path><path d="M1473.3 681L1691.7 544L1491.3 509Z" fill="#c6c6c6" stroke="#c6c6c6"></path><path d="M1089.7 0L874.3 167L1083.7 194Z" fill="#c8c8c8" stroke="#c8c8c8"></path><path d="M676 165L416.7 144L664 325Z" fill="#cacaca" stroke="#cacaca"></path><path d="M1301 152L1089.7 0L1083.7 194Z" fill="#bdbdbd" stroke="#bdbdbd"></path><path d="M404.7 891L438.7 1080L634 910Z" fill="#bfbfbf" stroke="#bfbfbf"></path><path d="M836.3 0L643 0L676 165Z" fill="#cfcfcf" stroke="#cfcfcf"></path><path d="M1465.3 0L1278 0L1301 152Z" fill="#c8c8c8" stroke="#c8c8c8"></path><path d="M1301 152L1278 0L1089.7 0Z" fill="#bfbfbf" stroke="#bfbfbf"></path><path d="M1242 1080L1494.3 1080L1275 908Z" fill="#c6c6c6" stroke="#c6c6c6"></path><path d="M643 0L416.7 144L676 165Z" fill="#c4c4c4" stroke="#c4c4c4"></path><path d="M1713.7 387L1515.3 175L1459.3 335Z" fill="#c6c6c6" stroke="#c6c6c6"></path><path d="M1459.3 335L1515.3 175L1301 152Z" fill="#d1d1d1" stroke="#d1d1d1"></path><path d="M1713.7 387L1459.3 335L1491.3 509Z" fill="#c4c4c4" stroke="#c4c4c4"></path><path d="M237.3 166L245.3 388L387.7 357Z" fill="#c8c8c8" stroke="#c8c8c8"></path><path d="M387.7 357L245.3 388L391.7 561Z" fill="#cfcfcf" stroke="#cfcfcf"></path><path d="M391.7 561L185.3 716L428.7 687Z" fill="#c1c1c1" stroke="#c1c1c1"></path><path d="M404.7 891L204.3 1080L438.7 1080Z" fill="#d3d3d3" stroke="#d3d3d3"></path><path d="M1734.7 729L1473.3 681L1519.3 886Z" fill="#cacaca" stroke="#cacaca"></path><path d="M1734.7 729L1691.7 544L1473.3 681Z" fill="#bdbdbd" stroke="#bdbdbd"></path><path d="M245.3 388L203.3 545L391.7 561Z" fill="#d3d3d3" stroke="#d3d3d3"></path><path d="M203.3 545L185.3 716L391.7 561Z" fill="#c1c1c1" stroke="#c1c1c1"></path><path d="M1718.7 884L1734.7 729L1519.3 886Z" fill="#cccccc" stroke="#cccccc"></path><path d="M1691.7 544L1713.7 387L1491.3 509Z" fill="#cfcfcf" stroke="#cfcfcf"></path><path d="M1920 508L1713.7 387L1691.7 544Z" fill="#bfbfbf" stroke="#bfbfbf"></path><path d="M185.3 716L204.3 910L404.7 891Z" fill="#c6c6c6" stroke="#c6c6c6"></path><path d="M1739.7 0L1465.3 0L1515.3 175Z" fill="#cacaca" stroke="#cacaca"></path><path d="M1515.3 175L1465.3 0L1301 152Z" fill="#c1c1c1" stroke="#c1c1c1"></path><path d="M1742.7 1080L1718.7 884L1519.3 886Z" fill="#c8c8c8" stroke="#c8c8c8"></path><path d="M643 0L397.7 0L416.7 144Z" fill="#bfbfbf" stroke="#bfbfbf"></path><path d="M416.7 144L237.3 166L387.7 357Z" fill="#bfbfbf" stroke="#bfbfbf"></path><path d="M0 507L0 716L203.3 545Z" fill="#c1c1c1" stroke="#c1c1c1"></path><path d="M203.3 545L0 716L185.3 716Z" fill="#cfcfcf" stroke="#cfcfcf"></path><path d="M397.7 0L237.3 166L416.7 144Z" fill="#bdbdbd" stroke="#bdbdbd"></path><path d="M0 929L204.3 1080L204.3 910Z" fill="#cacaca" stroke="#cacaca"></path><path d="M204.3 910L204.3 1080L404.7 891Z" fill="#bfbfbf" stroke="#bfbfbf"></path><path d="M1920 381L1743.7 195L1713.7 387Z" fill="#cacaca" stroke="#cacaca"></path><path d="M1713.7 387L1743.7 195L1515.3 175Z" fill="#c1c1c1" stroke="#c1c1c1"></path><path d="M1494.3 1080L1742.7 1080L1519.3 886Z" fill="#bfbfbf" stroke="#bfbfbf"></path><path d="M1920 876L1920 686L1734.7 729Z" fill="#d1d1d1" stroke="#d1d1d1"></path><path d="M1734.7 729L1920 686L1691.7 544Z" fill="#cccccc" stroke="#cccccc"></path><path d="M0 507L203.3 545L245.3 388Z" fill="#bdbdbd" stroke="#bdbdbd"></path><path d="M185.3 716L0 929L204.3 910Z" fill="#cccccc" stroke="#cccccc"></path><path d="M0 338L0 507L245.3 388Z" fill="#cfcfcf" stroke="#cfcfcf"></path><path d="M1920 876L1734.7 729L1718.7 884Z" fill="#bdbdbd" stroke="#bdbdbd"></path><path d="M1920 686L1920 508L1691.7 544Z" fill="#bdbdbd" stroke="#bdbdbd"></path><path d="M0 176L0 338L237.3 166Z" fill="#c4c4c4" stroke="#c4c4c4"></path><path d="M237.3 166L0 338L245.3 388Z" fill="#cacaca" stroke="#cacaca"></path><path d="M397.7 0L176.3 0L237.3 166Z" fill="#cfcfcf" stroke="#cfcfcf"></path><path d="M1920 508L1920 381L1713.7 387Z" fill="#bfbfbf" stroke="#bfbfbf"></path><path d="M0 716L0 929L185.3 716Z" fill="#c1c1c1" stroke="#c1c1c1"></path><path d="M1742.7 1080L1920 876L1718.7 884Z" fill="#c6c6c6" stroke="#c6c6c6"></path><path d="M1920 181L1739.7 0L1743.7 195Z" fill="#cacaca" stroke="#cacaca"></path><path d="M1743.7 195L1739.7 0L1515.3 175Z" fill="#c4c4c4" stroke="#c4c4c4"></path><path d="M176.3 0L0 176L237.3 166Z" fill="#cacaca" stroke="#cacaca"></path><path d="M0 929L0 1080L204.3 1080Z" fill="#cacaca" stroke="#cacaca"></path><path d="M1920 381L1920 181L1743.7 195Z" fill="#c6c6c6" stroke="#c6c6c6"></path><path d="M1742.7 1080L1920 1080L1920 876Z" fill="#c1c1c1" stroke="#c1c1c1"></path><path d="M176.3 0L0 0L0 176Z" fill="#cccccc" stroke="#cccccc"></path><path d="M1920 181L1920 0L1739.7 0Z" fill="#d3d3d3" stroke="#d3d3d3"></path></g></svg>